<svg xmlns="http://www.w3.org/2000/svg" viewBox="0 0 64 64" fill="none" stroke="#AEBBB7" stroke-width="4" stroke-linecap="round" stroke-linejoin="round">
  <path d="M15 18c1.7-1.7 4.3-1.7 6 0l4.4 4.4c1.7 1.7 1.8 4.4.2 6.3l-2.4 3.1a31.5 31.5 0 0 0 9 9l3.1-2.4c1.9-1.6 4.6-1.5 6.3.2l4.4 4.4c1.7 1.7 1.7 4.3 0 6l-2.5 2.5c-2.7 2.7-7 3.1-10.3 1.1a56.8 56.8 0 0 1-21.8-21.8c-2-3.3-1.6-7.6 1.1-10.3L15 18Z"/>
  <path d="M41 17c3.1.9 5.5 3.3 6.4 6.4"/>
  <path d="M41.7 8.8c6.8 1.2 12.2 6.6 13.4 13.4"/>
</svg>
